<svg width="1360" height="244" viewBox="0 0 1360 244" fill="none" xmlns="http://www.w3.org/2000/svg">
<rect width="1360" height="244" fill="#79DAE8" style="fill:#79DAE8;fill:color(display-p3 0.4745 0.8549 0.9098);fill-opacity:1;"/>
<g filter="url(#filter0_b_6_8)">
<mask id="path-1-outside-1_6_8" maskUnits="userSpaceOnUse" x="34" y="24" width="1273" height="191" fill="black">
<rect fill="white" x="34" y="24" width="1273" height="191"/>
<path d="M127.2 170.6L35 134.8V113.2L127.2 77.4V98.2L42.8 129.8V118.2L127.2 149.8V170.6ZM1107.7 214L1173.7 25.6H1196.1L1130.1 214H1107.7ZM1212.92 170.6V149.8L1297.32 118.2V129.8L1212.92 98.2V77.4L1305.12 113.2V134.8L1212.92 170.6Z"/>
<path d="M170.769 194V54H231.969C247.169 54 260.502 56.9333 271.969 62.8C283.435 68.6667 292.369 76.8 298.769 87.2C305.169 97.6 308.369 109.867 308.369 124C308.369 138 305.169 150.267 298.769 160.8C292.369 171.2 283.435 179.333 271.969 185.2C260.502 191.067 247.169 194 231.969 194H170.769ZM196.769 172H230.769C241.302 172 250.369 170 257.969 166C265.702 162 271.635 156.4 275.769 149.2C280.035 142 282.169 133.6 282.169 124C282.169 114.267 280.035 105.867 275.769 98.8C271.635 91.6 265.702 86 257.969 82C250.369 78 241.302 76 230.769 76H196.769V172ZM395.803 195.4C383.936 195.4 373.536 193.067 364.603 188.4C355.803 183.6 348.936 177.067 344.003 168.8C339.203 160.533 336.803 151.133 336.803 140.6C336.803 129.933 339.136 120.533 343.803 112.4C348.603 104.133 355.136 97.6667 363.403 93C371.803 88.3333 381.336 86 392.003 86C402.403 86 411.67 88.2667 419.803 92.8C427.936 97.3333 434.336 103.733 439.003 112C443.67 120.267 446.003 130 446.003 141.2C446.003 142.267 445.936 143.467 445.803 144.8C445.803 146.133 445.736 147.4 445.603 148.6H356.603V132H432.403L422.603 137.2C422.736 131.067 421.47 125.667 418.803 121C416.136 116.333 412.47 112.667 407.803 110C403.27 107.333 398.003 106 392.003 106C385.87 106 380.47 107.333 375.803 110C371.27 112.667 367.67 116.4 365.003 121.2C362.47 125.867 361.203 131.4 361.203 137.8V141.8C361.203 148.2 362.67 153.867 365.603 158.8C368.536 163.733 372.67 167.533 378.003 170.2C383.336 172.867 389.47 174.2 396.403 174.2C402.403 174.2 407.803 173.267 412.603 171.4C417.403 169.533 421.67 166.6 425.403 162.6L438.803 178C434.003 183.6 427.936 187.933 420.603 191C413.403 193.933 405.136 195.4 395.803 195.4ZM508.464 194L462.664 87.2H488.664L528.064 181.4H515.264L556.064 87.2H580.064L534.264 194H508.464ZM631.889 196C622.956 196 614.689 194.267 607.089 190.8C599.622 187.333 593.489 182.333 588.689 175.8L603.489 158C607.356 163.333 611.556 167.333 616.089 170C620.756 172.667 625.822 174 631.289 174C645.822 174 653.089 165.4 653.089 148.2V75.8H603.289V54H679.089V146.8C679.089 163.333 675.022 175.667 666.889 183.8C658.889 191.933 647.222 196 631.889 196ZM773.158 195.4C762.224 195.4 752.491 193.067 743.958 188.4C735.424 183.6 728.691 177.067 723.758 168.8C718.824 160.533 716.358 151.133 716.358 140.6C716.358 129.933 718.824 120.533 723.758 112.4C728.691 104.133 735.424 97.6667 743.958 93C752.491 88.3333 762.224 86 773.158 86C784.224 86 794.024 88.3333 802.558 93C811.224 97.6667 817.958 104.067 822.758 112.2C827.691 120.333 830.158 129.8 830.158 140.6C830.158 151.133 827.691 160.533 822.758 168.8C817.958 177.067 811.224 183.6 802.558 188.4C794.024 193.067 784.224 195.4 773.158 195.4ZM773.158 174C779.291 174 784.758 172.667 789.558 170C794.358 167.333 798.091 163.467 800.758 158.4C803.558 153.333 804.958 147.4 804.958 140.6C804.958 133.667 803.558 127.733 800.758 122.8C798.091 117.733 794.358 113.867 789.558 111.2C784.758 108.533 779.358 107.2 773.358 107.2C767.224 107.2 761.758 108.533 756.958 111.2C752.291 113.867 748.558 117.733 745.758 122.8C742.958 127.733 741.558 133.667 741.558 140.6C741.558 147.4 742.958 153.333 745.758 158.4C748.558 163.467 752.291 167.333 756.958 170C761.758 172.667 767.158 174 773.158 174ZM925.264 195.4C916.197 195.4 908.131 193.4 901.064 189.4C893.997 185.4 888.397 179.4 884.264 171.4C880.264 163.267 878.264 153 878.264 140.6C878.264 128.067 880.331 117.8 884.464 109.8C888.731 101.8 894.397 95.8667 901.464 92C908.664 88 916.597 86 925.264 86C935.797 86 945.064 88.2667 953.064 92.8C961.197 97.3333 967.597 103.667 972.264 111.8C977.064 119.933 979.464 129.533 979.464 140.6C979.464 151.667 977.064 161.267 972.264 169.4C967.597 177.533 961.197 183.933 953.064 188.6C945.064 193.133 935.797 195.4 925.264 195.4ZM866.064 194V45.6H891.064V112L889.064 140.4L889.864 168.8V194H866.064ZM922.464 174C928.464 174 933.797 172.667 938.464 170C943.264 167.333 947.064 163.467 949.864 158.4C952.664 153.333 954.064 147.4 954.064 140.6C954.064 133.667 952.664 127.733 949.864 122.8C947.064 117.733 943.264 113.867 938.464 111.2C933.797 108.533 928.464 107.2 922.464 107.2C916.464 107.2 911.064 108.533 906.264 111.2C901.464 113.867 897.664 117.733 894.864 122.8C892.064 127.733 890.664 133.667 890.664 140.6C890.664 147.4 892.064 153.333 894.864 158.4C897.664 163.467 901.464 167.333 906.264 170C911.064 172.667 916.464 174 922.464 174ZM1048.17 195.4C1039.24 195.4 1030.64 194.267 1022.37 192C1014.24 189.6 1007.77 186.733 1002.97 183.4L1012.57 164.4C1017.37 167.467 1023.11 170 1029.77 172C1036.44 174 1043.11 175 1049.77 175C1057.64 175 1063.31 173.933 1066.77 171.8C1070.37 169.667 1072.17 166.8 1072.17 163.2C1072.17 160.267 1070.97 158.067 1068.57 156.6C1066.17 155 1063.04 153.8 1059.17 153C1055.31 152.2 1050.97 151.467 1046.17 150.8C1041.51 150.133 1036.77 149.267 1031.97 148.2C1027.31 147 1023.04 145.333 1019.17 143.2C1015.31 140.933 1012.17 137.933 1009.77 134.2C1007.37 130.467 1006.17 125.533 1006.17 119.4C1006.17 112.6 1008.11 106.733 1011.97 101.8C1015.84 96.7333 1021.24 92.8667 1028.17 90.2C1035.24 87.4 1043.57 86 1053.17 86C1060.37 86 1067.64 86.8 1074.97 88.4C1082.31 90 1088.37 92.2667 1093.17 95.2L1083.57 114.2C1078.51 111.133 1073.37 109.067 1068.17 108C1063.11 106.8 1058.04 106.2 1052.97 106.2C1045.37 106.2 1039.71 107.333 1035.97 109.6C1032.37 111.867 1030.57 114.733 1030.57 118.2C1030.57 121.4 1031.77 123.8 1034.17 125.4C1036.57 127 1039.71 128.267 1043.57 129.2C1047.44 130.133 1051.71 130.933 1056.37 131.6C1061.17 132.133 1065.91 133 1070.57 134.2C1075.24 135.4 1079.51 137.067 1083.37 139.2C1087.37 141.2 1090.57 144.067 1092.97 147.8C1095.37 151.533 1096.57 156.4 1096.57 162.4C1096.57 169.067 1094.57 174.867 1090.57 179.8C1086.71 184.733 1081.17 188.6 1073.97 191.4C1066.77 194.067 1058.17 195.4 1048.17 195.4Z"/>
</mask>
<path d="M127.2 170.6L35 134.8V113.2L127.2 77.4V98.2L42.8 129.8V118.2L127.2 149.8V170.6ZM1107.7 214L1173.7 25.6H1196.1L1130.1 214H1107.7ZM1212.92 170.6V149.8L1297.32 118.2V129.8L1212.92 98.2V77.4L1305.12 113.2V134.8L1212.92 170.6Z" fill="#0AA1DD" style="fill:#0AA1DD;fill:color(display-p3 0.0392 0.6314 0.8667);fill-opacity:1;"/>
<path d="M170.769 194V54H231.969C247.169 54 260.502 56.9333 271.969 62.8C283.435 68.6667 292.369 76.8 298.769 87.2C305.169 97.6 308.369 109.867 308.369 124C308.369 138 305.169 150.267 298.769 160.8C292.369 171.2 283.435 179.333 271.969 185.2C260.502 191.067 247.169 194 231.969 194H170.769ZM196.769 172H230.769C241.302 172 250.369 170 257.969 166C265.702 162 271.635 156.4 275.769 149.2C280.035 142 282.169 133.6 282.169 124C282.169 114.267 280.035 105.867 275.769 98.8C271.635 91.6 265.702 86 257.969 82C250.369 78 241.302 76 230.769 76H196.769V172ZM395.803 195.4C383.936 195.4 373.536 193.067 364.603 188.4C355.803 183.6 348.936 177.067 344.003 168.8C339.203 160.533 336.803 151.133 336.803 140.6C336.803 129.933 339.136 120.533 343.803 112.4C348.603 104.133 355.136 97.6667 363.403 93C371.803 88.3333 381.336 86 392.003 86C402.403 86 411.67 88.2667 419.803 92.8C427.936 97.3333 434.336 103.733 439.003 112C443.67 120.267 446.003 130 446.003 141.2C446.003 142.267 445.936 143.467 445.803 144.8C445.803 146.133 445.736 147.4 445.603 148.6H356.603V132H432.403L422.603 137.2C422.736 131.067 421.47 125.667 418.803 121C416.136 116.333 412.47 112.667 407.803 110C403.27 107.333 398.003 106 392.003 106C385.87 106 380.47 107.333 375.803 110C371.27 112.667 367.67 116.4 365.003 121.2C362.47 125.867 361.203 131.4 361.203 137.8V141.8C361.203 148.2 362.67 153.867 365.603 158.8C368.536 163.733 372.67 167.533 378.003 170.2C383.336 172.867 389.47 174.2 396.403 174.2C402.403 174.2 407.803 173.267 412.603 171.4C417.403 169.533 421.67 166.6 425.403 162.6L438.803 178C434.003 183.6 427.936 187.933 420.603 191C413.403 193.933 405.136 195.4 395.803 195.4ZM508.464 194L462.664 87.2H488.664L528.064 181.4H515.264L556.064 87.2H580.064L534.264 194H508.464ZM631.889 196C622.956 196 614.689 194.267 607.089 190.8C599.622 187.333 593.489 182.333 588.689 175.8L603.489 158C607.356 163.333 611.556 167.333 616.089 170C620.756 172.667 625.822 174 631.289 174C645.822 174 653.089 165.4 653.089 148.2V75.8H603.289V54H679.089V146.8C679.089 163.333 675.022 175.667 666.889 183.8C658.889 191.933 647.222 196 631.889 196ZM773.158 195.4C762.224 195.4 752.491 193.067 743.958 188.4C735.424 183.6 728.691 177.067 723.758 168.8C718.824 160.533 716.358 151.133 716.358 140.6C716.358 129.933 718.824 120.533 723.758 112.4C728.691 104.133 735.424 97.6667 743.958 93C752.491 88.3333 762.224 86 773.158 86C784.224 86 794.024 88.3333 802.558 93C811.224 97.6667 817.958 104.067 822.758 112.2C827.691 120.333 830.158 129.8 830.158 140.6C830.158 151.133 827.691 160.533 822.758 168.8C817.958 177.067 811.224 183.6 802.558 188.4C794.024 193.067 784.224 195.4 773.158 195.4ZM773.158 174C779.291 174 784.758 172.667 789.558 170C794.358 167.333 798.091 163.467 800.758 158.4C803.558 153.333 804.958 147.4 804.958 140.6C804.958 133.667 803.558 127.733 800.758 122.8C798.091 117.733 794.358 113.867 789.558 111.2C784.758 108.533 779.358 107.2 773.358 107.2C767.224 107.2 761.758 108.533 756.958 111.2C752.291 113.867 748.558 117.733 745.758 122.8C742.958 127.733 741.558 133.667 741.558 140.6C741.558 147.4 742.958 153.333 745.758 158.4C748.558 163.467 752.291 167.333 756.958 170C761.758 172.667 767.158 174 773.158 174ZM925.264 195.4C916.197 195.4 908.131 193.4 901.064 189.4C893.997 185.4 888.397 179.4 884.264 171.4C880.264 163.267 878.264 153 878.264 140.6C878.264 128.067 880.331 117.8 884.464 109.8C888.731 101.8 894.397 95.8667 901.464 92C908.664 88 916.597 86 925.264 86C935.797 86 945.064 88.2667 953.064 92.8C961.197 97.3333 967.597 103.667 972.264 111.8C977.064 119.933 979.464 129.533 979.464 140.6C979.464 151.667 977.064 161.267 972.264 169.4C967.597 177.533 961.197 183.933 953.064 188.6C945.064 193.133 935.797 195.4 925.264 195.4ZM866.064 194V45.6H891.064V112L889.064 140.4L889.864 168.8V194H866.064ZM922.464 174C928.464 174 933.797 172.667 938.464 170C943.264 167.333 947.064 163.467 949.864 158.4C952.664 153.333 954.064 147.4 954.064 140.6C954.064 133.667 952.664 127.733 949.864 122.8C947.064 117.733 943.264 113.867 938.464 111.2C933.797 108.533 928.464 107.2 922.464 107.2C916.464 107.2 911.064 108.533 906.264 111.2C901.464 113.867 897.664 117.733 894.864 122.8C892.064 127.733 890.664 133.667 890.664 140.6C890.664 147.4 892.064 153.333 894.864 158.4C897.664 163.467 901.464 167.333 906.264 170C911.064 172.667 916.464 174 922.464 174ZM1048.17 195.4C1039.24 195.4 1030.64 194.267 1022.37 192C1014.24 189.6 1007.77 186.733 1002.97 183.4L1012.57 164.4C1017.37 167.467 1023.11 170 1029.77 172C1036.44 174 1043.11 175 1049.77 175C1057.64 175 1063.31 173.933 1066.77 171.8C1070.37 169.667 1072.17 166.8 1072.17 163.2C1072.17 160.267 1070.97 158.067 1068.57 156.6C1066.17 155 1063.04 153.8 1059.17 153C1055.31 152.2 1050.97 151.467 1046.17 150.8C1041.51 150.133 1036.77 149.267 1031.97 148.2C1027.31 147 1023.04 145.333 1019.17 143.2C1015.31 140.933 1012.17 137.933 1009.77 134.2C1007.37 130.467 1006.17 125.533 1006.17 119.4C1006.17 112.6 1008.11 106.733 1011.97 101.8C1015.84 96.7333 1021.24 92.8667 1028.17 90.2C1035.24 87.4 1043.57 86 1053.17 86C1060.37 86 1067.64 86.8 1074.97 88.4C1082.31 90 1088.37 92.2667 1093.17 95.2L1083.57 114.2C1078.51 111.133 1073.37 109.067 1068.17 108C1063.11 106.8 1058.04 106.2 1052.97 106.2C1045.37 106.2 1039.71 107.333 1035.97 109.6C1032.37 111.867 1030.57 114.733 1030.57 118.2C1030.57 121.4 1031.77 123.8 1034.17 125.4C1036.57 127 1039.71 128.267 1043.57 129.2C1047.44 130.133 1051.71 130.933 1056.37 131.6C1061.17 132.133 1065.91 133 1070.57 134.2C1075.24 135.4 1079.51 137.067 1083.37 139.2C1087.37 141.2 1090.57 144.067 1092.97 147.8C1095.37 151.533 1096.57 156.4 1096.57 162.4C1096.57 169.067 1094.57 174.867 1090.57 179.8C1086.71 184.733 1081.17 188.6 1073.97 191.4C1066.77 194.067 1058.17 195.4 1048.17 195.4Z" fill="black" style="fill:black;fill-opacity:1;"/>
<path d="M127.2 170.6L126.838 171.532L128.2 172.061V170.6H127.2ZM35 134.8H34V135.484L34.638 135.732L35 134.8ZM35 113.2L34.638 112.268L34 112.516V113.2H35ZM127.2 77.4H128.2V75.939L126.838 76.4678L127.2 77.4ZM127.2 98.2L127.551 99.1365L128.2 98.8934V98.2H127.2ZM42.8 129.8H41.8V131.242L43.1506 130.737L42.8 129.8ZM42.8 118.2L43.1506 117.263L41.8 116.758V118.2H42.8ZM127.2 149.8H128.2V149.107L127.551 148.863L127.2 149.8ZM127.562 169.668L35.362 133.868L34.638 135.732L126.838 171.532L127.562 169.668ZM36 134.8V113.2H34V134.8H36ZM35.362 114.132L127.562 78.3322L126.838 76.4678L34.638 112.268L35.362 114.132ZM126.2 77.4V98.2H128.2V77.4H126.2ZM126.849 97.2635L42.4494 128.863L43.1506 130.737L127.551 99.1365L126.849 97.2635ZM43.8 129.8V118.2H41.8V129.8H43.8ZM42.4494 119.137L126.849 150.737L127.551 148.863L43.1506 117.263L42.4494 119.137ZM126.2 149.8V170.6H128.2V149.8H126.2ZM170.769 194H169.769V195H170.769V194ZM170.769 54V53H169.769V54H170.769ZM271.969 62.8L271.513 63.6902L271.513 63.6902L271.969 62.8ZM298.769 87.2L297.917 87.7241L297.917 87.7241L298.769 87.2ZM298.769 160.8L299.62 161.324L299.623 161.319L298.769 160.8ZM196.769 172H195.769V173H196.769V172ZM257.969 166L257.509 165.112L257.503 165.115L257.969 166ZM275.769 149.2L274.908 148.69L274.902 148.702L275.769 149.2ZM275.769 98.8L274.902 99.2979L274.907 99.3074L274.913 99.3169L275.769 98.8ZM257.969 82L257.503 82.8849L257.509 82.8882L257.969 82ZM196.769 76V75H195.769V76H196.769ZM171.769 194V54H169.769V194H171.769ZM170.769 55H231.969V53H170.769V55ZM231.969 55C247.039 55 260.211 57.9076 271.513 63.6902L272.424 61.9097C260.793 55.959 247.299 53 231.969 53V55ZM271.513 63.6902C282.826 69.4782 291.618 77.4888 297.917 87.7241L299.62 86.6759C293.119 76.1112 284.045 67.8551 272.424 61.9097L271.513 63.6902ZM297.917 87.7241C304.206 97.943 307.369 110.022 307.369 124H309.369C309.369 109.711 306.132 97.257 299.62 86.6759L297.917 87.7241ZM307.369 124C307.369 137.842 304.207 149.924 297.914 160.281L299.623 161.319C306.131 150.609 309.369 138.158 309.369 124H307.369ZM297.917 160.276C291.618 170.511 282.826 178.522 271.513 184.31L272.424 186.09C284.045 180.145 293.119 171.889 299.62 161.324L297.917 160.276ZM271.513 184.31C260.211 190.092 247.039 193 231.969 193V195C247.299 195 260.793 192.041 272.424 186.09L271.513 184.31ZM231.969 193H170.769V195H231.969V193ZM196.769 173H230.769V171H196.769V173ZM230.769 173C241.428 173 250.662 170.976 258.435 166.885L257.503 165.115C250.076 169.024 241.176 171 230.769 171V173ZM258.428 166.888C266.323 162.804 272.402 157.073 276.636 149.698L274.902 148.702C270.869 155.727 265.081 161.196 257.509 165.112L258.428 166.888ZM276.629 149.71C281 142.334 283.169 133.753 283.169 124H281.169C281.169 133.447 279.071 141.666 274.908 148.69L276.629 149.71ZM283.169 124C283.169 114.117 281.001 105.532 276.625 98.2831L274.913 99.3169C279.069 106.202 281.169 114.416 281.169 124H283.169ZM276.636 98.3021C272.402 90.9272 266.323 85.1955 258.428 81.1118L257.509 82.8882C265.081 86.8045 270.869 92.2728 274.902 99.2979L276.636 98.3021ZM258.435 81.1151C250.662 77.0242 241.428 75 230.769 75V77C241.176 77 250.076 78.9758 257.503 82.8849L258.435 81.1151ZM230.769 75H196.769V77H230.769V75ZM195.769 76V172H197.769V76H195.769ZM364.603 188.4L364.124 189.278L364.132 189.282L364.14 189.286L364.603 188.4ZM344.003 168.8L343.138 169.302L343.144 169.312L344.003 168.8ZM343.803 112.4L342.938 111.898L342.936 111.902L343.803 112.4ZM363.403 93L362.917 92.1258L362.912 92.1292L363.403 93ZM419.803 92.8L420.29 91.9265L420.29 91.9265L419.803 92.8ZM445.803 144.8L444.808 144.7L444.803 144.75V144.8H445.803ZM445.603 148.6V149.6H446.498L446.597 148.71L445.603 148.6ZM356.603 148.6H355.603V149.6H356.603V148.6ZM356.603 132V131H355.603V132H356.603ZM432.403 132L432.872 132.883L432.403 131V132ZM422.603 137.2L421.603 137.178L421.566 138.882L423.072 138.083L422.603 137.2ZM418.803 121L417.935 121.496L417.935 121.496L418.803 121ZM407.803 110L407.296 110.862L407.307 110.868L407.803 110ZM375.803 110L375.307 109.132L375.296 109.138L375.803 110ZM365.003 121.2L364.129 120.714L364.124 120.723L365.003 121.2ZM378.003 170.2L377.556 171.094L377.556 171.094L378.003 170.2ZM412.603 171.4L412.966 172.332L412.966 172.332L412.603 171.4ZM425.403 162.6L426.158 161.944L425.429 161.107L424.672 161.918L425.403 162.6ZM438.803 178L439.562 178.651L440.124 177.995L439.558 177.344L438.803 178ZM420.603 191L420.98 191.926L420.989 191.923L420.603 191ZM395.803 194.4C384.069 194.4 373.833 192.093 365.066 187.514L364.14 189.286C373.24 194.04 383.804 196.4 395.803 196.4V194.4ZM365.082 187.522C356.432 182.804 349.7 176.394 344.862 168.288L343.144 169.312C348.173 177.739 355.174 184.396 364.124 189.278L365.082 187.522ZM344.868 168.298C340.165 160.199 337.803 150.975 337.803 140.6H335.803C335.803 151.291 338.241 160.868 343.138 169.302L344.868 168.298ZM337.803 140.6C337.803 130.084 340.102 120.86 344.67 112.898L342.936 111.902C338.171 120.207 335.803 129.783 335.803 140.6H337.803ZM344.668 112.902C349.379 104.788 355.784 98.4494 363.895 93.8708L362.912 92.1292C354.489 96.884 347.827 103.478 342.938 111.898L344.668 112.902ZM363.889 93.8742C372.124 89.2988 381.487 87 392.003 87V85C381.186 85 371.482 87.3678 362.917 92.1258L363.889 93.8742ZM392.003 87C402.253 87 411.349 89.2325 419.316 93.6735L420.29 91.9265C411.991 87.3009 402.553 85 392.003 85V87ZM419.316 93.6735C427.286 98.1154 433.554 104.382 438.132 112.492L439.874 111.508C435.119 103.085 428.587 96.5512 420.29 91.9265L419.316 93.6735ZM438.132 112.492C442.7 120.583 445.003 130.141 445.003 141.2H447.003C447.003 129.859 444.639 119.95 439.874 111.508L438.132 112.492ZM445.003 141.2C445.003 142.226 444.939 143.392 444.808 144.7L446.798 144.9C446.934 143.541 447.003 142.307 447.003 141.2H445.003ZM444.803 144.8C444.803 146.1 444.738 147.33 444.609 148.49L446.597 148.71C446.735 147.47 446.803 146.166 446.803 144.8H444.803ZM445.603 147.6H356.603V149.6H445.603V147.6ZM357.603 148.6V132H355.603V148.6H357.603ZM356.603 133H432.403V131H356.603V133ZM431.934 131.117L422.134 136.317L423.072 138.083L432.872 132.883L431.934 131.117ZM423.603 137.222C423.74 130.933 422.44 125.349 419.671 120.504L417.935 121.496C420.499 125.984 421.733 131.2 421.603 137.178L423.603 137.222ZM419.671 120.504C416.916 115.682 413.121 111.887 408.299 109.132L407.307 110.868C411.819 113.446 415.357 116.985 417.935 121.496L419.671 120.504ZM408.31 109.138C403.603 106.369 398.156 105 392.003 105V107C397.85 107 402.937 108.298 407.296 110.862L408.31 109.138ZM392.003 105C385.721 105 380.145 106.367 375.307 109.132L376.299 110.868C380.795 108.299 386.019 107 392.003 107V105ZM375.296 109.138C370.602 111.899 366.878 115.766 364.129 120.714L365.877 121.686C368.461 117.034 371.937 113.434 376.31 110.862L375.296 109.138ZM364.124 120.723C361.497 125.563 360.203 131.267 360.203 137.8H362.203C362.203 131.533 363.443 126.17 365.882 121.677L364.124 120.723ZM360.203 137.8V141.8H362.203V137.8H360.203ZM360.203 141.8C360.203 148.359 361.708 154.206 364.744 159.311L366.463 158.289C363.632 153.527 362.203 148.041 362.203 141.8H360.203ZM364.744 159.311C367.779 164.416 372.058 168.346 377.556 171.094L378.45 169.306C373.281 166.721 369.294 163.051 366.463 158.289L364.744 159.311ZM377.556 171.094C383.049 173.841 389.34 175.2 396.403 175.2V173.2C389.6 173.2 383.624 171.892 378.45 169.306L377.556 171.094ZM396.403 175.2C402.507 175.2 408.033 174.25 412.966 172.332L412.241 170.468C407.574 172.283 402.299 173.2 396.403 173.2V175.2ZM412.966 172.332C417.914 170.407 422.305 167.385 426.134 163.282L424.672 161.918C421.035 165.815 416.892 168.659 412.241 170.468L412.966 172.332ZM424.649 163.256L438.049 178.656L439.558 177.344L426.158 161.944L424.649 163.256ZM438.044 177.349C433.353 182.822 427.418 187.066 420.217 190.077L420.989 191.923C428.455 188.8 434.653 184.378 439.562 178.651L438.044 177.349ZM420.226 190.074C413.167 192.95 405.032 194.4 395.803 194.4V196.4C405.24 196.4 413.639 194.917 420.98 191.926L420.226 190.074ZM508.464 194L507.545 194.394L507.805 195H508.464V194ZM462.664 87.2V86.2H461.147L461.745 87.5941L462.664 87.2ZM488.664 87.2L489.587 86.8141L489.33 86.2H488.664V87.2ZM528.064 181.4V182.4H529.566L528.987 181.014L528.064 181.4ZM515.264 181.4L514.346 181.003L513.741 182.4H515.264V181.4ZM556.064 87.2V86.2H555.407L555.146 86.8025L556.064 87.2ZM580.064 87.2L580.983 87.5941L581.581 86.2H580.064V87.2ZM534.264 194V195H534.923L535.183 194.394L534.264 194ZM509.383 193.606L463.583 86.8059L461.745 87.5941L507.545 194.394L509.383 193.606ZM462.664 88.2H488.664V86.2H462.664V88.2ZM487.742 87.5859L527.142 181.786L528.987 181.014L489.587 86.8141L487.742 87.5859ZM528.064 180.4H515.264V182.4H528.064V180.4ZM516.182 181.797L556.982 87.5974L555.146 86.8025L514.346 181.003L516.182 181.797ZM556.064 88.2H580.064V86.2H556.064V88.2ZM579.145 86.8059L533.345 193.606L535.183 194.394L580.983 87.5941L579.145 86.8059ZM534.264 193H508.464V195H534.264V193ZM607.089 190.8L606.668 191.707L606.674 191.71L607.089 190.8ZM588.689 175.8L587.92 175.161L587.42 175.762L587.883 176.392L588.689 175.8ZM603.489 158L604.299 157.413L603.543 156.371L602.72 157.361L603.489 158ZM616.089 170L615.582 170.862L615.593 170.868L616.089 170ZM653.089 75.8H654.089V74.8H653.089V75.8ZM603.289 75.8H602.289V76.8H603.289V75.8ZM603.289 54V53H602.289V54H603.289ZM679.089 54H680.089V53H679.089V54ZM666.889 183.8L666.182 183.093L666.176 183.099L666.889 183.8ZM631.889 195C623.089 195 614.965 193.293 607.504 189.89L606.674 191.71C614.413 195.24 622.823 197 631.889 197V195ZM607.51 189.893C600.194 186.496 594.194 181.603 589.495 175.208L587.883 176.392C592.784 183.063 599.051 188.171 606.668 191.707L607.51 189.893ZM589.458 176.439L604.258 158.639L602.72 157.361L587.92 175.161L589.458 176.439ZM602.679 158.587C606.607 164.005 610.904 168.11 615.582 170.862L616.596 169.138C612.207 166.556 608.104 162.662 604.299 157.413L602.679 158.587ZM615.593 170.868C620.413 173.623 625.651 175 631.289 175V173C625.993 173 621.098 171.711 616.585 169.132L615.593 170.868ZM631.289 175C638.758 175 644.527 172.782 648.403 168.195C652.251 163.641 654.089 156.917 654.089 148.2H652.089C652.089 156.683 650.294 162.859 646.875 166.905C643.484 170.918 638.353 173 631.289 173V175ZM654.089 148.2V75.8H652.089V148.2H654.089ZM653.089 74.8H603.289V76.8H653.089V74.8ZM604.289 75.8V54H602.289V75.8H604.289ZM603.289 55H679.089V53H603.289V55ZM678.089 54V146.8H680.089V54H678.089ZM678.089 146.8C678.089 163.185 674.059 175.216 666.182 183.093L667.596 184.507C675.986 176.117 680.089 163.482 680.089 146.8H678.089ZM666.176 183.099C658.422 190.982 647.05 195 631.889 195V197C647.395 197 659.356 192.884 667.602 184.501L666.176 183.099ZM743.958 188.4L743.468 189.272L743.478 189.277L743.958 188.4ZM723.758 168.8L722.899 169.312L722.899 169.312L723.758 168.8ZM723.758 112.4L724.613 112.919L724.617 112.912L723.758 112.4ZM743.958 93L744.438 93.8774L744.438 93.8774L743.958 93ZM802.558 93L802.078 93.8774L802.084 93.8805L802.558 93ZM822.758 112.2L821.897 112.708L821.903 112.719L822.758 112.2ZM822.758 168.8L821.899 168.288L821.893 168.298L822.758 168.8ZM802.558 188.4L803.038 189.277L803.042 189.275L802.558 188.4ZM789.558 170L789.072 169.126L789.072 169.126L789.558 170ZM800.758 158.4L799.883 157.916L799.878 157.925L799.873 157.934L800.758 158.4ZM800.758 122.8L799.873 123.266L799.88 123.28L799.888 123.294L800.758 122.8ZM789.558 111.2L790.043 110.326L790.043 110.326L789.558 111.2ZM756.958 111.2L756.472 110.326L756.462 110.332L756.958 111.2ZM745.758 122.8L746.628 123.294L746.633 123.284L745.758 122.8ZM745.758 158.4L744.883 158.884L744.883 158.884L745.758 158.4ZM756.958 170L756.462 170.868L756.472 170.874L756.958 170ZM773.158 194.4C762.371 194.4 752.806 192.099 744.438 187.523L743.478 189.277C752.176 194.034 762.078 196.4 773.158 196.4V194.4ZM744.448 187.528C736.064 182.812 729.459 176.402 724.617 168.288L722.899 169.312C727.923 177.732 734.785 184.388 743.468 189.272L744.448 187.528ZM724.617 168.288C719.784 160.19 717.358 150.97 717.358 140.6H715.358C715.358 151.296 717.865 160.876 722.899 169.312L724.617 168.288ZM717.358 140.6C717.358 130.093 719.785 120.877 724.613 112.919L722.903 111.881C717.863 120.189 715.358 129.773 715.358 140.6H717.358ZM724.617 112.912C729.457 104.801 736.059 98.4593 744.438 93.8774L743.478 92.1226C734.79 96.874 727.925 103.466 722.899 111.888L724.617 112.912ZM744.438 93.8774C752.806 89.3007 762.371 87 773.158 87V85C762.078 85 752.176 87.3659 743.478 92.1226L744.438 93.8774ZM773.158 87C784.08 87 793.711 89.3017 802.078 93.8774L803.038 92.1226C794.338 87.365 784.369 85 773.158 85V87ZM802.084 93.8805C810.597 98.4645 817.193 104.739 821.897 112.708L823.619 111.692C818.722 103.395 811.852 96.8688 803.032 92.1195L802.084 93.8805ZM821.903 112.719C826.729 120.675 829.158 129.958 829.158 140.6H831.158C831.158 129.642 828.653 119.991 823.613 111.681L821.903 112.719ZM829.158 140.6C829.158 150.97 826.731 160.19 821.899 168.288L823.617 169.312C828.651 160.876 831.158 151.296 831.158 140.6H829.158ZM821.893 168.298C817.187 176.402 810.588 182.809 802.073 187.525L803.042 189.275C811.861 184.391 818.728 177.731 823.623 169.302L821.893 168.298ZM802.078 187.523C793.711 192.098 784.08 194.4 773.158 194.4V196.4C784.369 196.4 794.338 194.035 803.038 189.277L802.078 187.523ZM773.158 175C779.441 175 785.078 173.633 790.043 170.874L789.072 169.126C784.437 171.701 779.141 173 773.158 173V175ZM790.043 170.874C795.021 168.109 798.89 164.097 801.643 158.866L799.873 157.934C797.293 162.837 793.695 166.558 789.072 169.126L790.043 170.874ZM801.633 158.884C804.528 153.645 805.958 147.54 805.958 140.6H803.958C803.958 147.26 802.588 153.022 799.883 157.916L801.633 158.884ZM805.958 140.6C805.958 133.532 804.53 127.42 801.627 122.306L799.888 123.294C802.586 128.046 803.958 133.801 803.958 140.6H805.958ZM801.643 122.334C798.89 117.103 795.021 113.091 790.043 110.326L789.072 112.074C793.695 114.642 797.293 118.363 799.873 123.266L801.643 122.334ZM790.043 110.326C785.081 107.569 779.512 106.2 773.358 106.2V108.2C779.204 108.2 784.434 109.498 789.072 112.074L790.043 110.326ZM773.358 106.2C767.075 106.2 761.437 107.567 756.472 110.326L757.443 112.074C762.078 109.499 767.374 108.2 773.358 108.2V106.2ZM756.462 110.332C751.623 113.096 747.764 117.102 744.883 122.316L746.633 123.284C749.351 118.365 752.959 114.637 757.454 112.068L756.462 110.332ZM744.888 122.306C741.986 127.42 740.558 133.532 740.558 140.6H742.558C742.558 133.801 743.93 128.046 746.627 123.294L744.888 122.306ZM740.558 140.6C740.558 147.54 741.987 153.645 744.883 158.884L746.633 157.916C743.928 153.022 742.558 147.26 742.558 140.6H740.558ZM744.883 158.884C747.764 164.098 751.623 168.104 756.462 170.868L757.454 169.132C752.959 166.563 749.351 162.835 746.633 157.916L744.883 158.884ZM756.472 170.874C761.434 173.631 767.004 175 773.158 175V173C767.312 173 762.081 171.702 757.443 169.126L756.472 170.874ZM901.064 189.4L900.571 190.27L900.571 190.27L901.064 189.4ZM884.264 171.4L883.367 171.841L883.371 171.85L883.376 171.859L884.264 171.4ZM884.464 109.8L883.582 109.329L883.576 109.341L884.464 109.8ZM901.464 92L901.944 92.8773L901.95 92.8741L901.464 92ZM953.064 92.8L952.571 93.67L952.577 93.6735L953.064 92.8ZM972.264 111.8L971.397 112.298L971.403 112.308L972.264 111.8ZM972.264 169.4L971.403 168.892L971.397 168.902L972.264 169.4ZM953.064 188.6L953.557 189.47L953.562 189.467L953.064 188.6ZM866.064 194H865.064V195H866.064V194ZM866.064 45.6V44.6H865.064V45.6H866.064ZM891.064 45.6H892.064V44.6H891.064V45.6ZM891.064 112L892.062 112.07L892.064 112.035V112H891.064ZM889.064 140.4L888.067 140.33L888.063 140.379L888.064 140.428L889.064 140.4ZM889.864 168.8H890.864V168.786L890.864 168.772L889.864 168.8ZM889.864 194V195H890.864V194H889.864ZM938.464 170L937.978 169.126L937.968 169.132L938.464 170ZM949.864 158.4L950.739 158.884L950.739 158.884L949.864 158.4ZM949.864 122.8L948.989 123.284L948.994 123.294L949.864 122.8ZM938.464 111.2L937.968 112.068L937.978 112.074L938.464 111.2ZM906.264 111.2L905.778 110.326L905.778 110.326L906.264 111.2ZM894.864 122.8L895.734 123.294L895.739 123.284L894.864 122.8ZM906.264 170L906.75 169.126L906.75 169.126L906.264 170ZM925.264 194.4C916.349 194.4 908.456 192.435 901.557 188.53L900.571 190.27C907.805 194.365 916.045 196.4 925.264 196.4V194.4ZM901.557 188.53C894.677 184.636 889.207 178.788 885.152 170.941L883.376 171.859C887.588 180.012 893.318 186.164 900.571 190.27L901.557 188.53ZM885.161 170.959C881.249 163.004 879.264 152.9 879.264 140.6H877.264C877.264 153.1 879.279 163.53 883.367 171.841L885.161 170.959ZM879.264 140.6C879.264 128.167 881.315 118.073 885.352 110.259L883.576 109.341C879.346 117.527 877.264 127.966 877.264 140.6H879.264ZM885.346 110.271C889.533 102.42 895.069 96.639 901.944 92.8773L900.984 91.1227C893.726 95.0943 887.928 101.18 883.582 109.329L885.346 110.271ZM901.95 92.8741C908.993 88.961 916.758 87 925.264 87V85C916.437 85 908.335 87.0389 900.978 91.1258L901.95 92.8741ZM925.264 87C935.65 87 944.742 89.2336 952.571 93.67L953.557 91.93C945.386 87.2997 935.945 85 925.264 85V87ZM952.577 93.6735C960.551 98.1177 966.82 104.321 971.397 112.298L973.131 111.302C968.375 103.013 961.844 96.5489 953.551 91.9265L952.577 93.6735ZM971.403 112.308C976.097 120.263 978.464 129.681 978.464 140.6H980.464C980.464 129.386 978.031 119.604 973.125 111.292L971.403 112.308ZM978.464 140.6C978.464 151.519 976.097 160.937 971.403 168.892L973.125 169.908C978.031 161.596 980.464 151.814 980.464 140.6H978.464ZM971.397 168.902C966.818 176.882 960.546 183.154 952.566 187.733L953.562 189.467C961.849 184.712 968.376 178.185 973.131 169.898L971.397 168.902ZM952.571 187.73C944.742 192.166 935.65 194.4 925.264 194.4V196.4C935.945 196.4 945.386 194.1 953.557 189.47L952.571 187.73ZM867.064 194V45.6H865.064V194H867.064ZM866.064 46.6H891.064V44.6H866.064V46.6ZM890.064 45.6V112H892.064V45.6H890.064ZM890.067 111.93L888.067 140.33L890.062 140.47L892.062 112.07L890.067 111.93ZM888.064 140.428L888.864 168.828L890.864 168.772L890.064 140.372L888.064 140.428ZM888.864 168.8V194H890.864V168.8H888.864ZM889.864 193H866.064V195H889.864V193ZM922.464 175C928.617 175 934.125 173.631 938.96 170.868L937.968 169.132C933.469 171.702 928.311 173 922.464 173V175ZM938.95 170.874C943.923 168.111 947.854 164.105 950.739 158.884L948.989 157.916C946.274 162.828 942.605 166.555 937.978 169.126L938.95 170.874ZM950.739 158.884C953.634 153.645 955.064 147.54 955.064 140.6H953.064C953.064 147.26 951.694 153.022 948.989 157.916L950.739 158.884ZM955.064 140.6C955.064 133.532 953.636 127.42 950.734 122.306L948.994 123.294C951.692 128.046 953.064 133.801 953.064 140.6H955.064ZM950.739 122.316C947.854 117.095 943.923 113.089 938.95 110.326L937.978 112.074C942.605 114.645 946.274 118.372 948.989 123.284L950.739 122.316ZM938.96 110.332C934.125 107.569 928.617 106.2 922.464 106.2V108.2C928.311 108.2 933.469 109.498 937.968 112.068L938.96 110.332ZM922.464 106.2C916.31 106.2 910.74 107.569 905.778 110.326L906.75 112.074C911.388 109.498 916.618 108.2 922.464 108.2V106.2ZM905.778 110.326C900.805 113.089 896.874 117.095 893.989 122.316L895.739 123.284C898.454 118.372 902.123 114.645 906.75 112.074L905.778 110.326ZM893.994 122.306C891.092 127.42 889.664 133.532 889.664 140.6H891.664C891.664 133.801 893.036 128.046 895.734 123.294L893.994 122.306ZM889.664 140.6C889.664 147.54 891.094 153.645 893.989 158.884L895.739 157.916C893.034 153.022 891.664 147.26 891.664 140.6H889.664ZM893.989 158.884C896.874 164.105 900.805 168.111 905.778 170.874L906.75 169.126C902.123 166.555 898.454 162.828 895.739 157.916L893.989 158.884ZM905.778 170.874C910.74 173.631 916.31 175 922.464 175V173C916.618 173 911.388 171.702 906.75 169.126L905.778 170.874ZM1022.37 192L1022.09 192.959L1022.1 192.962L1022.11 192.964L1022.37 192ZM1002.97 183.4L1002.08 182.949L1001.69 183.725L1002.4 184.221L1002.97 183.4ZM1012.57 164.4L1013.11 163.557L1012.18 162.962L1011.68 163.949L1012.57 164.4ZM1029.77 172L1030.06 171.042L1030.06 171.042L1029.77 172ZM1066.77 171.8L1066.26 170.94L1066.26 170.944L1066.25 170.948L1066.77 171.8ZM1068.57 156.6L1068.02 157.432L1068.04 157.443L1068.05 157.453L1068.57 156.6ZM1059.17 153L1058.97 153.979L1059.17 153ZM1046.17 150.8L1046.03 151.79L1046.04 151.79L1046.17 150.8ZM1031.97 148.2L1031.72 149.168L1031.74 149.173L1031.76 149.176L1031.97 148.2ZM1019.17 143.2L1018.67 144.063L1018.68 144.069L1018.69 144.076L1019.17 143.2ZM1011.97 101.8L1012.76 102.417L1012.77 102.407L1011.97 101.8ZM1028.17 90.2L1028.53 91.1334L1028.54 91.1297L1028.17 90.2ZM1074.97 88.4L1074.76 89.377L1074.76 89.377L1074.97 88.4ZM1093.17 95.2L1094.07 95.651L1094.48 94.8277L1093.69 94.3467L1093.17 95.2ZM1083.57 114.2L1083.06 115.055L1083.98 115.614L1084.47 114.651L1083.57 114.2ZM1068.17 108L1067.94 108.973L1067.96 108.977L1067.97 108.98L1068.17 108ZM1035.97 109.6L1035.45 108.745L1035.45 108.749L1035.44 108.754L1035.97 109.6ZM1034.17 125.4L1033.62 126.232L1033.62 126.232L1034.17 125.4ZM1043.57 129.2L1043.34 130.172L1043.34 130.172L1043.57 129.2ZM1056.37 131.6L1056.23 132.59L1056.25 132.592L1056.26 132.594L1056.37 131.6ZM1070.57 134.2L1070.82 133.232L1070.82 133.232L1070.57 134.2ZM1083.37 139.2L1082.89 140.076L1082.91 140.085L1082.93 140.094L1083.37 139.2ZM1090.57 179.8L1089.8 179.17L1089.79 179.177L1089.79 179.183L1090.57 179.8ZM1073.97 191.4L1074.32 192.338L1074.33 192.335L1074.34 192.332L1073.97 191.4ZM1048.17 194.4C1039.33 194.4 1030.81 193.278 1022.64 191.036L1022.11 192.964C1030.47 195.256 1039.15 196.4 1048.17 196.4V194.4ZM1022.66 191.041C1014.58 188.659 1008.23 185.83 1003.54 182.579L1002.4 184.221C1007.32 187.636 1013.9 190.541 1022.09 192.959L1022.66 191.041ZM1003.87 183.851L1013.47 164.851L1011.68 163.949L1002.08 182.949L1003.87 183.851ZM1012.04 165.243C1016.93 168.369 1022.75 170.937 1029.49 172.958L1030.06 171.042C1023.46 169.063 1017.82 166.565 1013.11 163.557L1012.04 165.243ZM1029.49 172.958C1036.24 174.985 1043.01 176 1049.77 176V174C1043.21 174 1036.64 173.015 1030.06 171.042L1029.49 172.958ZM1049.77 176C1057.68 176 1063.58 174.937 1067.3 172.652L1066.25 170.948C1063.03 172.93 1057.6 174 1049.77 174V176ZM1067.28 172.66C1071.13 170.382 1073.17 167.216 1073.17 163.2H1071.17C1071.17 166.384 1069.62 168.952 1066.26 170.94L1067.28 172.66ZM1073.17 163.2C1073.17 159.936 1071.81 157.404 1069.09 155.747L1068.05 157.453C1070.14 158.729 1071.17 160.597 1071.17 163.2H1073.17ZM1069.13 155.768C1066.59 154.076 1063.33 152.838 1059.38 152.021L1058.97 153.979C1062.76 154.762 1065.76 155.924 1068.02 157.432L1069.13 155.768ZM1059.38 152.021C1055.48 151.215 1051.13 150.479 1046.31 149.81L1046.04 151.79C1050.82 152.455 1055.13 153.185 1058.97 153.979L1059.38 152.021ZM1046.31 149.81C1041.67 149.147 1036.97 148.285 1032.19 147.224L1031.76 149.176C1036.58 150.248 1041.34 151.12 1046.03 151.79L1046.31 149.81ZM1032.22 147.232C1027.63 146.051 1023.44 144.414 1019.66 142.324L1018.69 144.076C1022.64 146.253 1026.98 147.949 1031.72 149.168L1032.22 147.232ZM1019.68 142.337C1015.95 140.149 1012.93 137.259 1010.61 133.659L1008.93 134.741C1011.42 138.608 1014.67 141.717 1018.67 144.063L1019.68 142.337ZM1010.61 133.659C1008.35 130.138 1007.17 125.412 1007.17 119.4H1005.17C1005.17 125.654 1006.4 130.796 1008.93 134.741L1010.61 133.659ZM1007.17 119.4C1007.17 112.803 1009.04 107.159 1012.76 102.417L1011.19 101.183C1007.17 106.308 1005.17 112.397 1005.17 119.4H1007.17ZM1012.77 102.407C1016.51 97.5101 1021.74 93.7447 1028.53 91.1333L1027.81 89.2666C1020.74 91.9886 1015.17 95.9566 1011.18 101.193L1012.77 102.407ZM1028.54 91.1297C1035.46 88.3866 1043.67 87 1053.17 87V85C1043.48 85 1035.02 86.4134 1027.81 89.2703L1028.54 91.1297ZM1053.17 87C1060.3 87 1067.49 87.7916 1074.76 89.377L1075.19 87.423C1067.79 85.8084 1060.45 85 1053.17 85V87ZM1074.76 89.377C1082.02 90.9607 1087.97 93.1939 1092.65 96.0533L1093.69 94.3467C1088.77 91.3395 1082.59 89.0393 1075.19 87.423L1074.76 89.377ZM1092.28 94.749L1082.68 113.749L1084.47 114.651L1094.07 95.651L1092.28 94.749ZM1084.09 113.344C1078.94 110.225 1073.7 108.113 1068.37 107.02L1067.97 108.98C1073.05 110.021 1078.08 112.041 1083.06 115.055L1084.09 113.344ZM1068.4 107.027C1063.26 105.81 1058.12 105.2 1052.97 105.2V107.2C1057.96 107.2 1062.95 107.79 1067.94 108.973L1068.4 107.027ZM1052.97 105.2C1045.31 105.2 1039.42 106.337 1035.45 108.745L1036.49 110.455C1039.99 108.33 1045.44 107.2 1052.97 107.2V105.2ZM1035.44 108.754C1031.63 111.156 1029.57 114.308 1029.57 118.2H1031.57C1031.57 115.158 1033.12 112.578 1036.51 110.446L1035.44 108.754ZM1029.57 118.2C1029.57 121.691 1030.91 124.424 1033.62 126.232L1034.73 124.568C1032.64 123.176 1031.57 121.109 1031.57 118.2H1029.57ZM1033.62 126.232C1036.15 127.917 1039.4 129.221 1043.34 130.172L1043.81 128.228C1040.02 127.312 1037 126.083 1034.73 124.568L1033.62 126.232ZM1043.34 130.172C1047.24 131.114 1051.54 131.92 1056.23 132.59L1056.51 130.61C1051.87 129.947 1047.64 129.153 1043.81 128.228L1043.34 130.172ZM1056.26 132.594C1061.02 133.122 1065.7 133.98 1070.32 135.168L1070.82 133.232C1066.11 132.02 1061.33 131.145 1056.48 130.606L1056.26 132.594ZM1070.32 135.168C1074.92 136.349 1079.1 137.986 1082.89 140.076L1083.86 138.324C1079.91 136.147 1075.56 134.451 1070.82 133.232L1070.32 135.168ZM1082.93 140.094C1086.77 142.015 1089.83 144.76 1092.13 148.341L1093.81 147.259C1091.32 143.374 1087.98 140.385 1083.82 138.306L1082.93 140.094ZM1092.13 148.341C1094.4 151.865 1095.57 156.526 1095.57 162.4H1097.57C1097.57 156.274 1096.35 151.201 1093.81 147.259L1092.13 148.341ZM1095.57 162.4C1095.57 168.85 1093.64 174.424 1089.8 179.17L1091.35 180.43C1095.5 175.309 1097.57 169.284 1097.57 162.4H1095.57ZM1089.79 179.183C1086.05 183.946 1080.68 187.718 1073.61 190.468L1074.34 192.332C1081.66 189.482 1087.36 185.521 1091.36 180.417L1089.79 179.183ZM1073.63 190.462C1066.57 193.077 1058.09 194.4 1048.17 194.4V196.4C1058.26 196.4 1066.98 195.056 1074.32 192.338L1073.63 190.462ZM1107.7 214L1106.76 213.669L1106.29 215H1107.7V214ZM1173.7 25.6V24.6H1172.99L1172.76 25.2694L1173.7 25.6ZM1196.1 25.6L1197.05 25.9306L1197.51 24.6H1196.1V25.6ZM1130.1 214V215H1130.81L1131.05 214.331L1130.1 214ZM1108.65 214.331L1174.65 25.9306L1172.76 25.2694L1106.76 213.669L1108.65 214.331ZM1173.7 26.6H1196.1V24.6H1173.7V26.6ZM1195.16 25.2694L1129.16 213.669L1131.05 214.331L1197.05 25.9306L1195.16 25.2694ZM1130.1 213H1107.7V215H1130.1V213ZM1212.92 170.6H1211.92V172.061L1213.28 171.532L1212.92 170.6ZM1212.92 149.8L1212.57 148.863L1211.92 149.107V149.8H1212.92ZM1297.32 118.2H1298.32V116.758L1296.97 117.263L1297.32 118.2ZM1297.32 129.8L1296.97 130.737L1298.32 131.242V129.8H1297.32ZM1212.92 98.2H1211.92V98.8934L1212.57 99.1365L1212.92 98.2ZM1212.92 77.4L1213.28 76.4678L1211.92 75.939V77.4H1212.92ZM1305.12 113.2H1306.12V112.516L1305.48 112.268L1305.12 113.2ZM1305.12 134.8L1305.48 135.732L1306.12 135.484V134.8H1305.12ZM1213.92 170.6V149.8H1211.92V170.6H1213.92ZM1213.27 150.737L1297.67 119.137L1296.97 117.263L1212.57 148.863L1213.27 150.737ZM1296.32 118.2V129.8H1298.32V118.2H1296.32ZM1297.67 128.863L1213.27 97.2635L1212.57 99.1365L1296.97 130.737L1297.67 128.863ZM1213.92 98.2V77.4H1211.92V98.2H1213.92ZM1212.56 78.3322L1304.76 114.132L1305.48 112.268L1213.28 76.4678L1212.56 78.3322ZM1304.12 113.2V134.8H1306.12V113.2H1304.12ZM1304.76 133.868L1212.56 169.668L1213.28 171.532L1305.48 135.732L1304.76 133.868Z" fill="white" fill-opacity="0.8" style="fill:white;fill-opacity:0.8;" mask="url(#path-1-outside-1_6_8)"/>
<path d="M127.2 170.6L126.838 171.532L128.2 172.061V170.6H127.2ZM35 134.8H34V135.484L34.638 135.732L35 134.8ZM35 113.2L34.638 112.268L34 112.516V113.2H35ZM127.2 77.4H128.2V75.939L126.838 76.4678L127.2 77.4ZM127.2 98.2L127.551 99.1365L128.2 98.8934V98.2H127.2ZM42.8 129.8H41.8V131.242L43.1506 130.737L42.8 129.8ZM42.8 118.2L43.1506 117.263L41.8 116.758V118.2H42.8ZM127.2 149.8H128.2V149.107L127.551 148.863L127.2 149.8ZM127.562 169.668L35.362 133.868L34.638 135.732L126.838 171.532L127.562 169.668ZM36 134.8V113.2H34V134.8H36ZM35.362 114.132L127.562 78.3322L126.838 76.4678L34.638 112.268L35.362 114.132ZM126.2 77.4V98.2H128.2V77.4H126.2ZM126.849 97.2635L42.4494 128.863L43.1506 130.737L127.551 99.1365L126.849 97.2635ZM43.8 129.8V118.2H41.8V129.8H43.8ZM42.4494 119.137L126.849 150.737L127.551 148.863L43.1506 117.263L42.4494 119.137ZM126.2 149.8V170.6H128.2V149.8H126.2ZM170.769 194H169.769V195H170.769V194ZM170.769 54V53H169.769V54H170.769ZM271.969 62.8L271.513 63.6902L271.513 63.6902L271.969 62.8ZM298.769 87.2L297.917 87.7241L297.917 87.7241L298.769 87.2ZM298.769 160.8L299.62 161.324L299.623 161.319L298.769 160.8ZM196.769 172H195.769V173H196.769V172ZM257.969 166L257.509 165.112L257.503 165.115L257.969 166ZM275.769 149.2L274.908 148.69L274.902 148.702L275.769 149.2ZM275.769 98.8L274.902 99.2979L274.907 99.3074L274.913 99.3169L275.769 98.8ZM257.969 82L257.503 82.8849L257.509 82.8882L257.969 82ZM196.769 76V75H195.769V76H196.769ZM171.769 194V54H169.769V194H171.769ZM170.769 55H231.969V53H170.769V55ZM231.969 55C247.039 55 260.211 57.9076 271.513 63.6902L272.424 61.9097C260.793 55.959 247.299 53 231.969 53V55ZM271.513 63.6902C282.826 69.4782 291.618 77.4888 297.917 87.7241L299.62 86.6759C293.119 76.1112 284.045 67.8551 272.424 61.9097L271.513 63.6902ZM297.917 87.7241C304.206 97.943 307.369 110.022 307.369 124H309.369C309.369 109.711 306.132 97.257 299.62 86.6759L297.917 87.7241ZM307.369 124C307.369 137.842 304.207 149.924 297.914 160.281L299.623 161.319C306.131 150.609 309.369 138.158 309.369 124H307.369ZM297.917 160.276C291.618 170.511 282.826 178.522 271.513 184.31L272.424 186.09C284.045 180.145 293.119 171.889 299.62 161.324L297.917 160.276ZM271.513 184.31C260.211 190.092 247.039 193 231.969 193V195C247.299 195 260.793 192.041 272.424 186.09L271.513 184.31ZM231.969 193H170.769V195H231.969V193ZM196.769 173H230.769V171H196.769V173ZM230.769 173C241.428 173 250.662 170.976 258.435 166.885L257.503 165.115C250.076 169.024 241.176 171 230.769 171V173ZM258.428 166.888C266.323 162.804 272.402 157.073 276.636 149.698L274.902 148.702C270.869 155.727 265.081 161.196 257.509 165.112L258.428 166.888ZM276.629 149.71C281 142.334 283.169 133.753 283.169 124H281.169C281.169 133.447 279.071 141.666 274.908 148.69L276.629 149.71ZM283.169 124C283.169 114.117 281.001 105.532 276.625 98.2831L274.913 99.3169C279.069 106.202 281.169 114.416 281.169 124H283.169ZM276.636 98.3021C272.402 90.9272 266.323 85.1955 258.428 81.1118L257.509 82.8882C265.081 86.8045 270.869 92.2728 274.902 99.2979L276.636 98.3021ZM258.435 81.1151C250.662 77.0242 241.428 75 230.769 75V77C241.176 77 250.076 78.9758 257.503 82.8849L258.435 81.1151ZM230.769 75H196.769V77H230.769V75ZM195.769 76V172H197.769V76H195.769ZM364.603 188.4L364.124 189.278L364.132 189.282L364.14 189.286L364.603 188.4ZM344.003 168.8L343.138 169.302L343.144 169.312L344.003 168.8ZM343.803 112.4L342.938 111.898L342.936 111.902L343.803 112.4ZM363.403 93L362.917 92.1258L362.912 92.1292L363.403 93ZM419.803 92.8L420.29 91.9265L420.29 91.9265L419.803 92.8ZM445.803 144.8L444.808 144.7L444.803 144.75V144.8H445.803ZM445.603 148.6V149.6H446.498L446.597 148.71L445.603 148.6ZM356.603 148.6H355.603V149.6H356.603V148.6ZM356.603 132V131H355.603V132H356.603ZM432.403 132L432.872 132.883L432.403 131V132ZM422.603 137.2L421.603 137.178L421.566 138.882L423.072 138.083L422.603 137.2ZM418.803 121L417.935 121.496L417.935 121.496L418.803 121ZM407.803 110L407.296 110.862L407.307 110.868L407.803 110ZM375.803 110L375.307 109.132L375.296 109.138L375.803 110ZM365.003 121.2L364.129 120.714L364.124 120.723L365.003 121.2ZM378.003 170.2L377.556 171.094L377.556 171.094L378.003 170.2ZM412.603 171.4L412.966 172.332L412.966 172.332L412.603 171.4ZM425.403 162.6L426.158 161.944L425.429 161.107L424.672 161.918L425.403 162.6ZM438.803 178L439.562 178.651L440.124 177.995L439.558 177.344L438.803 178ZM420.603 191L420.98 191.926L420.989 191.923L420.603 191ZM395.803 194.4C384.069 194.4 373.833 192.093 365.066 187.514L364.14 189.286C373.24 194.04 383.804 196.4 395.803 196.4V194.4ZM365.082 187.522C356.432 182.804 349.7 176.394 344.862 168.288L343.144 169.312C348.173 177.739 355.174 184.396 364.124 189.278L365.082 187.522ZM344.868 168.298C340.165 160.199 337.803 150.975 337.803 140.6H335.803C335.803 151.291 338.241 160.868 343.138 169.302L344.868 168.298ZM337.803 140.6C337.803 130.084 340.102 120.86 344.67 112.898L342.936 111.902C338.171 120.207 335.803 129.783 335.803 140.6H337.803ZM344.668 112.902C349.379 104.788 355.784 98.4494 363.895 93.8708L362.912 92.1292C354.489 96.884 347.827 103.478 342.938 111.898L344.668 112.902ZM363.889 93.8742C372.124 89.2988 381.487 87 392.003 87V85C381.186 85 371.482 87.3678 362.917 92.1258L363.889 93.8742ZM392.003 87C402.253 87 411.349 89.2325 419.316 93.6735L420.29 91.9265C411.991 87.3009 402.553 85 392.003 85V87ZM419.316 93.6735C427.286 98.1154 433.554 104.382 438.132 112.492L439.874 111.508C435.119 103.085 428.587 96.5512 420.29 91.9265L419.316 93.6735ZM438.132 112.492C442.7 120.583 445.003 130.141 445.003 141.2H447.003C447.003 129.859 444.639 119.95 439.874 111.508L438.132 112.492ZM445.003 141.2C445.003 142.226 444.939 143.392 444.808 144.7L446.798 144.9C446.934 143.541 447.003 142.307 447.003 141.2H445.003ZM444.803 144.8C444.803 146.1 444.738 147.33 444.609 148.49L446.597 148.71C446.735 147.47 446.803 146.166 446.803 144.8H444.803ZM445.603 147.6H356.603V149.6H445.603V147.6ZM357.603 148.6V132H355.603V148.6H357.603ZM356.603 133H432.403V131H356.603V133ZM431.934 131.117L422.134 136.317L423.072 138.083L432.872 132.883L431.934 131.117ZM423.603 137.222C423.74 130.933 422.44 125.349 419.671 120.504L417.935 121.496C420.499 125.984 421.733 131.2 421.603 137.178L423.603 137.222ZM419.671 120.504C416.916 115.682 413.121 111.887 408.299 109.132L407.307 110.868C411.819 113.446 415.357 116.985 417.935 121.496L419.671 120.504ZM408.31 109.138C403.603 106.369 398.156 105 392.003 105V107C397.85 107 402.937 108.298 407.296 110.862L408.31 109.138ZM392.003 105C385.721 105 380.145 106.367 375.307 109.132L376.299 110.868C380.795 108.299 386.019 107 392.003 107V105ZM375.296 109.138C370.602 111.899 366.878 115.766 364.129 120.714L365.877 121.686C368.461 117.034 371.937 113.434 376.31 110.862L375.296 109.138ZM364.124 120.723C361.497 125.563 360.203 131.267 360.203 137.8H362.203C362.203 131.533 363.443 126.17 365.882 121.677L364.124 120.723ZM360.203 137.8V141.8H362.203V137.8H360.203ZM360.203 141.8C360.203 148.359 361.708 154.206 364.744 159.311L366.463 158.289C363.632 153.527 362.203 148.041 362.203 141.8H360.203ZM364.744 159.311C367.779 164.416 372.058 168.346 377.556 171.094L378.45 169.306C373.281 166.721 369.294 163.051 366.463 158.289L364.744 159.311ZM377.556 171.094C383.049 173.841 389.34 175.2 396.403 175.2V173.2C389.6 173.2 383.624 171.892 378.45 169.306L377.556 171.094ZM396.403 175.2C402.507 175.2 408.033 174.25 412.966 172.332L412.241 170.468C407.574 172.283 402.299 173.2 396.403 173.2V175.2ZM412.966 172.332C417.914 170.407 422.305 167.385 426.134 163.282L424.672 161.918C421.035 165.815 416.892 168.659 412.241 170.468L412.966 172.332ZM424.649 163.256L438.049 178.656L439.558 177.344L426.158 161.944L424.649 163.256ZM438.044 177.349C433.353 182.822 427.418 187.066 420.217 190.077L420.989 191.923C428.455 188.8 434.653 184.378 439.562 178.651L438.044 177.349ZM420.226 190.074C413.167 192.95 405.032 194.4 395.803 194.4V196.4C405.24 196.4 413.639 194.917 420.98 191.926L420.226 190.074ZM508.464 194L507.545 194.394L507.805 195H508.464V194ZM462.664 87.2V86.2H461.147L461.745 87.5941L462.664 87.2ZM488.664 87.2L489.587 86.8141L489.33 86.2H488.664V87.2ZM528.064 181.4V182.4H529.566L528.987 181.014L528.064 181.4ZM515.264 181.4L514.346 181.003L513.741 182.4H515.264V181.4ZM556.064 87.2V86.2H555.407L555.146 86.8025L556.064 87.2ZM580.064 87.2L580.983 87.5941L581.581 86.2H580.064V87.2ZM534.264 194V195H534.923L535.183 194.394L534.264 194ZM509.383 193.606L463.583 86.8059L461.745 87.5941L507.545 194.394L509.383 193.606ZM462.664 88.2H488.664V86.2H462.664V88.2ZM487.742 87.5859L527.142 181.786L528.987 181.014L489.587 86.8141L487.742 87.5859ZM528.064 180.4H515.264V182.4H528.064V180.4ZM516.182 181.797L556.982 87.5974L555.146 86.8025L514.346 181.003L516.182 181.797ZM556.064 88.2H580.064V86.2H556.064V88.2ZM579.145 86.8059L533.345 193.606L535.183 194.394L580.983 87.5941L579.145 86.8059ZM534.264 193H508.464V195H534.264V193ZM607.089 190.8L606.668 191.707L606.674 191.71L607.089 190.8ZM588.689 175.8L587.92 175.161L587.42 175.762L587.883 176.392L588.689 175.8ZM603.489 158L604.299 157.413L603.543 156.371L602.72 157.361L603.489 158ZM616.089 170L615.582 170.862L615.593 170.868L616.089 170ZM653.089 75.8H654.089V74.8H653.089V75.8ZM603.289 75.8H602.289V76.8H603.289V75.8ZM603.289 54V53H602.289V54H603.289ZM679.089 54H680.089V53H679.089V54ZM666.889 183.8L666.182 183.093L666.176 183.099L666.889 183.8ZM631.889 195C623.089 195 614.965 193.293 607.504 189.89L606.674 191.71C614.413 195.24 622.823 197 631.889 197V195ZM607.51 189.893C600.194 186.496 594.194 181.603 589.495 175.208L587.883 176.392C592.784 183.063 599.051 188.171 606.668 191.707L607.51 189.893ZM589.458 176.439L604.258 158.639L602.72 157.361L587.92 175.161L589.458 176.439ZM602.679 158.587C606.607 164.005 610.904 168.11 615.582 170.862L616.596 169.138C612.207 166.556 608.104 162.662 604.299 157.413L602.679 158.587ZM615.593 170.868C620.413 173.623 625.651 175 631.289 175V173C625.993 173 621.098 171.711 616.585 169.132L615.593 170.868ZM631.289 175C638.758 175 644.527 172.782 648.403 168.195C652.251 163.641 654.089 156.917 654.089 148.2H652.089C652.089 156.683 650.294 162.859 646.875 166.905C643.484 170.918 638.353 173 631.289 173V175ZM654.089 148.2V75.8H652.089V148.2H654.089ZM653.089 74.8H603.289V76.8H653.089V74.8ZM604.289 75.8V54H602.289V75.8H604.289ZM603.289 55H679.089V53H603.289V55ZM678.089 54V146.8H680.089V54H678.089ZM678.089 146.8C678.089 163.185 674.059 175.216 666.182 183.093L667.596 184.507C675.986 176.117 680.089 163.482 680.089 146.8H678.089ZM666.176 183.099C658.422 190.982 647.05 195 631.889 195V197C647.395 197 659.356 192.884 667.602 184.501L666.176 183.099ZM743.958 188.4L743.468 189.272L743.478 189.277L743.958 188.4ZM723.758 168.8L722.899 169.312L722.899 169.312L723.758 168.8ZM723.758 112.4L724.613 112.919L724.617 112.912L723.758 112.4ZM743.958 93L744.438 93.8774L744.438 93.8774L743.958 93ZM802.558 93L802.078 93.8774L802.084 93.8805L802.558 93ZM822.758 112.2L821.897 112.708L821.903 112.719L822.758 112.2ZM822.758 168.8L821.899 168.288L821.893 168.298L822.758 168.8ZM802.558 188.4L803.038 189.277L803.042 189.275L802.558 188.4ZM789.558 170L789.072 169.126L789.072 169.126L789.558 170ZM800.758 158.4L799.883 157.916L799.878 157.925L799.873 157.934L800.758 158.4ZM800.758 122.8L799.873 123.266L799.88 123.28L799.888 123.294L800.758 122.8ZM789.558 111.2L790.043 110.326L790.043 110.326L789.558 111.2ZM756.958 111.2L756.472 110.326L756.462 110.332L756.958 111.2ZM745.758 122.8L746.628 123.294L746.633 123.284L745.758 122.8ZM745.758 158.4L744.883 158.884L744.883 158.884L745.758 158.4ZM756.958 170L756.462 170.868L756.472 170.874L756.958 170ZM773.158 194.4C762.371 194.4 752.806 192.099 744.438 187.523L743.478 189.277C752.176 194.034 762.078 196.4 773.158 196.4V194.4ZM744.448 187.528C736.064 182.812 729.459 176.402 724.617 168.288L722.899 169.312C727.923 177.732 734.785 184.388 743.468 189.272L744.448 187.528ZM724.617 168.288C719.784 160.19 717.358 150.97 717.358 140.6H715.358C715.358 151.296 717.865 160.876 722.899 169.312L724.617 168.288ZM717.358 140.6C717.358 130.093 719.785 120.877 724.613 112.919L722.903 111.881C717.863 120.189 715.358 129.773 715.358 140.6H717.358ZM724.617 112.912C729.457 104.801 736.059 98.4593 744.438 93.8774L743.478 92.1226C734.79 96.874 727.925 103.466 722.899 111.888L724.617 112.912ZM744.438 93.8774C752.806 89.3007 762.371 87 773.158 87V85C762.078 85 752.176 87.3659 743.478 92.1226L744.438 93.8774ZM773.158 87C784.08 87 793.711 89.3017 802.078 93.8774L803.038 92.1226C794.338 87.365 784.369 85 773.158 85V87ZM802.084 93.8805C810.597 98.4645 817.193 104.739 821.897 112.708L823.619 111.692C818.722 103.395 811.852 96.8688 803.032 92.1195L802.084 93.8805ZM821.903 112.719C826.729 120.675 829.158 129.958 829.158 140.6H831.158C831.158 129.642 828.653 119.991 823.613 111.681L821.903 112.719ZM829.158 140.6C829.158 150.97 826.731 160.19 821.899 168.288L823.617 169.312C828.651 160.876 831.158 151.296 831.158 140.6H829.158ZM821.893 168.298C817.187 176.402 810.588 182.809 802.073 187.525L803.042 189.275C811.861 184.391 818.728 177.731 823.623 169.302L821.893 168.298ZM802.078 187.523C793.711 192.098 784.08 194.4 773.158 194.4V196.4C784.369 196.4 794.338 194.035 803.038 189.277L802.078 187.523ZM773.158 175C779.441 175 785.078 173.633 790.043 170.874L789.072 169.126C784.437 171.701 779.141 173 773.158 173V175ZM790.043 170.874C795.021 168.109 798.89 164.097 801.643 158.866L799.873 157.934C797.293 162.837 793.695 166.558 789.072 169.126L790.043 170.874ZM801.633 158.884C804.528 153.645 805.958 147.54 805.958 140.6H803.958C803.958 147.26 802.588 153.022 799.883 157.916L801.633 158.884ZM805.958 140.6C805.958 133.532 804.53 127.42 801.627 122.306L799.888 123.294C802.586 128.046 803.958 133.801 803.958 140.6H805.958ZM801.643 122.334C798.89 117.103 795.021 113.091 790.043 110.326L789.072 112.074C793.695 114.642 797.293 118.363 799.873 123.266L801.643 122.334ZM790.043 110.326C785.081 107.569 779.512 106.2 773.358 106.2V108.2C779.204 108.2 784.434 109.498 789.072 112.074L790.043 110.326ZM773.358 106.2C767.075 106.2 761.437 107.567 756.472 110.326L757.443 112.074C762.078 109.499 767.374 108.2 773.358 108.2V106.2ZM756.462 110.332C751.623 113.096 747.764 117.102 744.883 122.316L746.633 123.284C749.351 118.365 752.959 114.637 757.454 112.068L756.462 110.332ZM744.888 122.306C741.986 127.42 740.558 133.532 740.558 140.6H742.558C742.558 133.801 743.93 128.046 746.627 123.294L744.888 122.306ZM740.558 140.6C740.558 147.54 741.987 153.645 744.883 158.884L746.633 157.916C743.928 153.022 742.558 147.26 742.558 140.6H740.558ZM744.883 158.884C747.764 164.098 751.623 168.104 756.462 170.868L757.454 169.132C752.959 166.563 749.351 162.835 746.633 157.916L744.883 158.884ZM756.472 170.874C761.434 173.631 767.004 175 773.158 175V173C767.312 173 762.081 171.702 757.443 169.126L756.472 170.874ZM901.064 189.4L900.571 190.27L900.571 190.27L901.064 189.4ZM884.264 171.4L883.367 171.841L883.371 171.85L883.376 171.859L884.264 171.4ZM884.464 109.8L883.582 109.329L883.576 109.341L884.464 109.8ZM901.464 92L901.944 92.8773L901.95 92.8741L901.464 92ZM953.064 92.8L952.571 93.67L952.577 93.6735L953.064 92.8ZM972.264 111.8L971.397 112.298L971.403 112.308L972.264 111.8ZM972.264 169.4L971.403 168.892L971.397 168.902L972.264 169.4ZM953.064 188.6L953.557 189.47L953.562 189.467L953.064 188.6ZM866.064 194H865.064V195H866.064V194ZM866.064 45.6V44.6H865.064V45.6H866.064ZM891.064 45.6H892.064V44.6H891.064V45.6ZM891.064 112L892.062 112.07L892.064 112.035V112H891.064ZM889.064 140.4L888.067 140.33L888.063 140.379L888.064 140.428L889.064 140.4ZM889.864 168.8H890.864V168.786L890.864 168.772L889.864 168.8ZM889.864 194V195H890.864V194H889.864ZM938.464 170L937.978 169.126L937.968 169.132L938.464 170ZM949.864 158.4L950.739 158.884L950.739 158.884L949.864 158.4ZM949.864 122.8L948.989 123.284L948.994 123.294L949.864 122.8ZM938.464 111.2L937.968 112.068L937.978 112.074L938.464 111.2ZM906.264 111.2L905.778 110.326L905.778 110.326L906.264 111.2ZM894.864 122.8L895.734 123.294L895.739 123.284L894.864 122.8ZM906.264 170L906.75 169.126L906.75 169.126L906.264 170ZM925.264 194.4C916.349 194.4 908.456 192.435 901.557 188.53L900.571 190.27C907.805 194.365 916.045 196.4 925.264 196.4V194.4ZM901.557 188.53C894.677 184.636 889.207 178.788 885.152 170.941L883.376 171.859C887.588 180.012 893.318 186.164 900.571 190.27L901.557 188.53ZM885.161 170.959C881.249 163.004 879.264 152.9 879.264 140.6H877.264C877.264 153.1 879.279 163.53 883.367 171.841L885.161 170.959ZM879.264 140.6C879.264 128.167 881.315 118.073 885.352 110.259L883.576 109.341C879.346 117.527 877.264 127.966 877.264 140.6H879.264ZM885.346 110.271C889.533 102.42 895.069 96.639 901.944 92.8773L900.984 91.1227C893.726 95.0943 887.928 101.18 883.582 109.329L885.346 110.271ZM901.95 92.8741C908.993 88.961 916.758 87 925.264 87V85C916.437 85 908.335 87.0389 900.978 91.1258L901.95 92.8741ZM925.264 87C935.65 87 944.742 89.2336 952.571 93.67L953.557 91.93C945.386 87.2997 935.945 85 925.264 85V87ZM952.577 93.6735C960.551 98.1177 966.82 104.321 971.397 112.298L973.131 111.302C968.375 103.013 961.844 96.5489 953.551 91.9265L952.577 93.6735ZM971.403 112.308C976.097 120.263 978.464 129.681 978.464 140.6H980.464C980.464 129.386 978.031 119.604 973.125 111.292L971.403 112.308ZM978.464 140.6C978.464 151.519 976.097 160.937 971.403 168.892L973.125 169.908C978.031 161.596 980.464 151.814 980.464 140.6H978.464ZM971.397 168.902C966.818 176.882 960.546 183.154 952.566 187.733L953.562 189.467C961.849 184.712 968.376 178.185 973.131 169.898L971.397 168.902ZM952.571 187.73C944.742 192.166 935.65 194.4 925.264 194.4V196.4C935.945 196.4 945.386 194.1 953.557 189.47L952.571 187.73ZM867.064 194V45.6H865.064V194H867.064ZM866.064 46.6H891.064V44.6H866.064V46.6ZM890.064 45.6V112H892.064V45.6H890.064ZM890.067 111.93L888.067 140.33L890.062 140.47L892.062 112.07L890.067 111.93ZM888.064 140.428L888.864 168.828L890.864 168.772L890.064 140.372L888.064 140.428ZM888.864 168.8V194H890.864V168.8H888.864ZM889.864 193H866.064V195H889.864V193ZM922.464 175C928.617 175 934.125 173.631 938.96 170.868L937.968 169.132C933.469 171.702 928.311 173 922.464 173V175ZM938.95 170.874C943.923 168.111 947.854 164.105 950.739 158.884L948.989 157.916C946.274 162.828 942.605 166.555 937.978 169.126L938.95 170.874ZM950.739 158.884C953.634 153.645 955.064 147.54 955.064 140.6H953.064C953.064 147.26 951.694 153.022 948.989 157.916L950.739 158.884ZM955.064 140.6C955.064 133.532 953.636 127.42 950.734 122.306L948.994 123.294C951.692 128.046 953.064 133.801 953.064 140.6H955.064ZM950.739 122.316C947.854 117.095 943.923 113.089 938.95 110.326L937.978 112.074C942.605 114.645 946.274 118.372 948.989 123.284L950.739 122.316ZM938.96 110.332C934.125 107.569 928.617 106.2 922.464 106.2V108.2C928.311 108.2 933.469 109.498 937.968 112.068L938.96 110.332ZM922.464 106.2C916.31 106.2 910.74 107.569 905.778 110.326L906.75 112.074C911.388 109.498 916.618 108.2 922.464 108.2V106.2ZM905.778 110.326C900.805 113.089 896.874 117.095 893.989 122.316L895.739 123.284C898.454 118.372 902.123 114.645 906.75 112.074L905.778 110.326ZM893.994 122.306C891.092 127.42 889.664 133.532 889.664 140.6H891.664C891.664 133.801 893.036 128.046 895.734 123.294L893.994 122.306ZM889.664 140.6C889.664 147.54 891.094 153.645 893.989 158.884L895.739 157.916C893.034 153.022 891.664 147.26 891.664 140.6H889.664ZM893.989 158.884C896.874 164.105 900.805 168.111 905.778 170.874L906.75 169.126C902.123 166.555 898.454 162.828 895.739 157.916L893.989 158.884ZM905.778 170.874C910.74 173.631 916.31 175 922.464 175V173C916.618 173 911.388 171.702 906.75 169.126L905.778 170.874ZM1022.37 192L1022.09 192.959L1022.1 192.962L1022.11 192.964L1022.37 192ZM1002.97 183.4L1002.08 182.949L1001.69 183.725L1002.4 184.221L1002.97 183.4ZM1012.57 164.4L1013.11 163.557L1012.18 162.962L1011.68 163.949L1012.57 164.4ZM1029.77 172L1030.06 171.042L1030.06 171.042L1029.77 172ZM1066.77 171.8L1066.26 170.94L1066.26 170.944L1066.25 170.948L1066.77 171.8ZM1068.57 156.6L1068.02 157.432L1068.04 157.443L1068.05 157.453L1068.57 156.6ZM1059.17 153L1058.97 153.979L1059.17 153ZM1046.17 150.8L1046.03 151.79L1046.04 151.79L1046.17 150.8ZM1031.97 148.2L1031.72 149.168L1031.74 149.173L1031.76 149.176L1031.97 148.2ZM1019.17 143.2L1018.67 144.063L1018.68 144.069L1018.69 144.076L1019.17 143.2ZM1011.97 101.8L1012.76 102.417L1012.77 102.407L1011.97 101.8ZM1028.17 90.2L1028.53 91.1334L1028.54 91.1297L1028.17 90.2ZM1074.97 88.4L1074.76 89.377L1074.76 89.377L1074.97 88.4ZM1093.17 95.2L1094.07 95.651L1094.48 94.8277L1093.69 94.3467L1093.17 95.2ZM1083.57 114.2L1083.06 115.055L1083.98 115.614L1084.47 114.651L1083.57 114.2ZM1068.17 108L1067.94 108.973L1067.96 108.977L1067.97 108.98L1068.17 108ZM1035.97 109.6L1035.45 108.745L1035.45 108.749L1035.44 108.754L1035.97 109.6ZM1034.17 125.4L1033.62 126.232L1033.62 126.232L1034.17 125.4ZM1043.57 129.2L1043.34 130.172L1043.34 130.172L1043.57 129.2ZM1056.37 131.6L1056.23 132.59L1056.25 132.592L1056.26 132.594L1056.37 131.6ZM1070.57 134.2L1070.82 133.232L1070.82 133.232L1070.57 134.2ZM1083.37 139.2L1082.89 140.076L1082.91 140.085L1082.93 140.094L1083.37 139.2ZM1090.57 179.8L1089.8 179.17L1089.79 179.177L1089.79 179.183L1090.57 179.8ZM1073.97 191.4L1074.32 192.338L1074.33 192.335L1074.34 192.332L1073.97 191.4ZM1048.17 194.4C1039.33 194.4 1030.81 193.278 1022.64 191.036L1022.11 192.964C1030.47 195.256 1039.15 196.4 1048.17 196.4V194.4ZM1022.66 191.041C1014.58 188.659 1008.23 185.83 1003.54 182.579L1002.4 184.221C1007.32 187.636 1013.9 190.541 1022.09 192.959L1022.66 191.041ZM1003.87 183.851L1013.47 164.851L1011.68 163.949L1002.08 182.949L1003.87 183.851ZM1012.04 165.243C1016.93 168.369 1022.75 170.937 1029.49 172.958L1030.06 171.042C1023.46 169.063 1017.82 166.565 1013.11 163.557L1012.04 165.243ZM1029.49 172.958C1036.24 174.985 1043.01 176 1049.77 176V174C1043.21 174 1036.64 173.015 1030.06 171.042L1029.49 172.958ZM1049.77 176C1057.68 176 1063.58 174.937 1067.3 172.652L1066.25 170.948C1063.03 172.93 1057.6 174 1049.77 174V176ZM1067.28 172.66C1071.13 170.382 1073.17 167.216 1073.17 163.2H1071.17C1071.17 166.384 1069.62 168.952 1066.26 170.94L1067.28 172.66ZM1073.17 163.2C1073.17 159.936 1071.81 157.404 1069.09 155.747L1068.05 157.453C1070.14 158.729 1071.17 160.597 1071.17 163.2H1073.17ZM1069.13 155.768C1066.59 154.076 1063.33 152.838 1059.38 152.021L1058.97 153.979C1062.76 154.762 1065.76 155.924 1068.02 157.432L1069.13 155.768ZM1059.38 152.021C1055.48 151.215 1051.13 150.479 1046.31 149.81L1046.04 151.79C1050.82 152.455 1055.13 153.185 1058.97 153.979L1059.38 152.021ZM1046.31 149.81C1041.67 149.147 1036.97 148.285 1032.19 147.224L1031.76 149.176C1036.58 150.248 1041.34 151.12 1046.03 151.79L1046.31 149.81ZM1032.22 147.232C1027.63 146.051 1023.44 144.414 1019.66 142.324L1018.69 144.076C1022.64 146.253 1026.98 147.949 1031.72 149.168L1032.22 147.232ZM1019.68 142.337C1015.95 140.149 1012.93 137.259 1010.61 133.659L1008.93 134.741C1011.42 138.608 1014.67 141.717 1018.67 144.063L1019.68 142.337ZM1010.61 133.659C1008.35 130.138 1007.17 125.412 1007.17 119.4H1005.17C1005.17 125.654 1006.4 130.796 1008.93 134.741L1010.61 133.659ZM1007.17 119.4C1007.17 112.803 1009.04 107.159 1012.76 102.417L1011.19 101.183C1007.17 106.308 1005.17 112.397 1005.17 119.4H1007.17ZM1012.77 102.407C1016.51 97.5101 1021.74 93.7447 1028.53 91.1333L1027.81 89.2666C1020.74 91.9886 1015.17 95.9566 1011.18 101.193L1012.77 102.407ZM1028.54 91.1297C1035.46 88.3866 1043.67 87 1053.17 87V85C1043.48 85 1035.02 86.4134 1027.81 89.2703L1028.54 91.1297ZM1053.17 87C1060.3 87 1067.49 87.7916 1074.76 89.377L1075.19 87.423C1067.79 85.8084 1060.45 85 1053.17 85V87ZM1074.76 89.377C1082.02 90.9607 1087.97 93.1939 1092.65 96.0533L1093.69 94.3467C1088.77 91.3395 1082.59 89.0393 1075.19 87.423L1074.76 89.377ZM1092.28 94.749L1082.68 113.749L1084.47 114.651L1094.07 95.651L1092.28 94.749ZM1084.09 113.344C1078.94 110.225 1073.7 108.113 1068.37 107.02L1067.97 108.98C1073.05 110.021 1078.08 112.041 1083.06 115.055L1084.09 113.344ZM1068.4 107.027C1063.26 105.81 1058.12 105.2 1052.97 105.2V107.2C1057.96 107.2 1062.95 107.79 1067.94 108.973L1068.4 107.027ZM1052.97 105.2C1045.31 105.2 1039.42 106.337 1035.45 108.745L1036.49 110.455C1039.99 108.33 1045.44 107.2 1052.97 107.2V105.2ZM1035.44 108.754C1031.63 111.156 1029.57 114.308 1029.57 118.2H1031.57C1031.57 115.158 1033.12 112.578 1036.51 110.446L1035.44 108.754ZM1029.57 118.2C1029.57 121.691 1030.91 124.424 1033.62 126.232L1034.73 124.568C1032.64 123.176 1031.57 121.109 1031.57 118.2H1029.57ZM1033.62 126.232C1036.15 127.917 1039.4 129.221 1043.34 130.172L1043.81 128.228C1040.02 127.312 1037 126.083 1034.73 124.568L1033.62 126.232ZM1043.34 130.172C1047.24 131.114 1051.54 131.92 1056.23 132.59L1056.51 130.61C1051.87 129.947 1047.64 129.153 1043.81 128.228L1043.34 130.172ZM1056.26 132.594C1061.02 133.122 1065.7 133.98 1070.32 135.168L1070.82 133.232C1066.11 132.02 1061.33 131.145 1056.48 130.606L1056.26 132.594ZM1070.32 135.168C1074.92 136.349 1079.1 137.986 1082.89 140.076L1083.86 138.324C1079.91 136.147 1075.56 134.451 1070.82 133.232L1070.32 135.168ZM1082.93 140.094C1086.77 142.015 1089.83 144.76 1092.13 148.341L1093.81 147.259C1091.32 143.374 1087.98 140.385 1083.82 138.306L1082.93 140.094ZM1092.13 148.341C1094.4 151.865 1095.57 156.526 1095.57 162.4H1097.57C1097.57 156.274 1096.35 151.201 1093.81 147.259L1092.13 148.341ZM1095.57 162.4C1095.57 168.85 1093.64 174.424 1089.8 179.17L1091.35 180.43C1095.5 175.309 1097.57 169.284 1097.57 162.4H1095.57ZM1089.79 179.183C1086.05 183.946 1080.68 187.718 1073.61 190.468L1074.34 192.332C1081.66 189.482 1087.36 185.521 1091.36 180.417L1089.79 179.183ZM1073.63 190.462C1066.57 193.077 1058.09 194.4 1048.17 194.4V196.4C1058.26 196.4 1066.98 195.056 1074.32 192.338L1073.63 190.462ZM1107.7 214L1106.76 213.669L1106.29 215H1107.7V214ZM1173.7 25.6V24.6H1172.99L1172.76 25.2694L1173.7 25.6ZM1196.1 25.6L1197.05 25.9306L1197.51 24.6H1196.1V25.6ZM1130.1 214V215H1130.81L1131.05 214.331L1130.1 214ZM1108.65 214.331L1174.65 25.9306L1172.76 25.2694L1106.76 213.669L1108.65 214.331ZM1173.7 26.6H1196.1V24.6H1173.7V26.6ZM1195.16 25.2694L1129.16 213.669L1131.05 214.331L1197.05 25.9306L1195.16 25.2694ZM1130.1 213H1107.7V215H1130.1V213ZM1212.92 170.6H1211.92V172.061L1213.28 171.532L1212.92 170.6ZM1212.92 149.8L1212.57 148.863L1211.92 149.107V149.8H1212.92ZM1297.32 118.2H1298.32V116.758L1296.97 117.263L1297.32 118.2ZM1297.32 129.8L1296.97 130.737L1298.32 131.242V129.8H1297.32ZM1212.92 98.2H1211.92V98.8934L1212.57 99.1365L1212.92 98.2ZM1212.92 77.4L1213.28 76.4678L1211.92 75.939V77.4H1212.92ZM1305.12 113.2H1306.12V112.516L1305.48 112.268L1305.12 113.2ZM1305.12 134.8L1305.48 135.732L1306.12 135.484V134.8H1305.12ZM1213.92 170.6V149.8H1211.92V170.6H1213.92ZM1213.27 150.737L1297.67 119.137L1296.97 117.263L1212.57 148.863L1213.27 150.737ZM1296.32 118.2V129.8H1298.32V118.2H1296.32ZM1297.67 128.863L1213.27 97.2635L1212.57 99.1365L1296.97 130.737L1297.67 128.863ZM1213.92 98.2V77.4H1211.92V98.2H1213.92ZM1212.56 78.3322L1304.76 114.132L1305.48 112.268L1213.28 76.4678L1212.56 78.3322ZM1304.12 113.2V134.8H1306.12V113.2H1304.12ZM1304.76 133.868L1212.56 169.668L1213.28 171.532L1305.48 135.732L1304.76 133.868Z" fill="black" style="fill:black;fill-opacity:1;" mask="url(#path-1-outside-1_6_8)"/>
</g>
<defs>
<filter id="filter0_b_6_8" x="31" y="21.6" width="1278.12" height="196.4" filterUnits="userSpaceOnUse" color-interpolation-filters="sRGB">
<feFlood flood-opacity="0" result="BackgroundImageFix"/>
<feGaussianBlur in="BackgroundImageFix" stdDeviation="2"/>
<feComposite in2="SourceAlpha" operator="in" result="effect1_backgroundBlur_6_8"/>
<feBlend mode="normal" in="SourceGraphic" in2="effect1_backgroundBlur_6_8" result="shape"/>
</filter>
</defs>
</svg>
