<svg width="150" height="48" viewBox="0 0 150 48" fill="none" xmlns="http://www.w3.org/2000/svg">
<g filter="url(#filter0_b_7_9)">
<path d="M23.3 37.15L0.25 28.2V22.8L23.3 13.85V19.05L2.2 26.95V24.05L23.3 31.95V37.15ZM100.447 48L116.947 0.899997H122.547L106.047 48H100.447ZM126.752 37.15V31.95L147.852 24.05V26.95L126.752 19.05V13.85L149.802 22.8V28.2L126.752 37.15Z" fill="#0AA1DD" style="fill:#0AA1DD;fill:color(display-p3 0.0392 0.6314 0.8667);fill-opacity:1;"/>
<path d="M34.1922 43V8H49.4922C53.2922 8 56.6255 8.73333 59.4922 10.2C62.3589 11.6667 64.5922 13.7 66.1922 16.3C67.7922 18.9 68.5922 21.9667 68.5922 25.5C68.5922 29 67.7922 32.0667 66.1922 34.7C64.5922 37.3 62.3589 39.3333 59.4922 40.8C56.6255 42.2667 53.2922 43 49.4922 43H34.1922ZM40.6922 37.5H49.1922C51.8255 37.5 54.0922 37 55.9922 36C57.9255 35 59.4089 33.6 60.4422 31.8C61.5089 30 62.0422 27.9 62.0422 25.5C62.0422 23.0667 61.5089 20.9667 60.4422 19.2C59.4089 17.4 57.9255 16 55.9922 15C54.0922 14 51.8255 13.5 49.1922 13.5H40.6922V37.5ZM83.2184 43.5C80.985 43.5 78.9184 43.0667 77.0184 42.2C75.1517 41.3333 73.6184 40.0833 72.4184 38.45L76.1184 34C77.085 35.3333 78.135 36.3333 79.2684 37C80.435 37.6667 81.7017 38 83.0684 38C86.7017 38 88.5184 35.85 88.5184 31.55V13.45H76.0684V8H95.0184V31.2C95.0184 35.3333 94.0017 38.4167 91.9684 40.45C89.9684 42.4833 87.0517 43.5 83.2184 43.5Z" fill="black" style="fill:black;fill-opacity:1;"/>
</g>
<defs>
<filter id="filter0_b_7_9" x="-3.75" y="-3.09998" width="157.552" height="55.1" filterUnits="userSpaceOnUse" color-interpolation-filters="sRGB">
<feFlood flood-opacity="0" result="BackgroundImageFix"/>
<feGaussianBlur in="BackgroundImageFix" stdDeviation="2"/>
<feComposite in2="SourceAlpha" operator="in" result="effect1_backgroundBlur_7_9"/>
<feBlend mode="normal" in="SourceGraphic" in2="effect1_backgroundBlur_7_9" result="shape"/>
</filter>
</defs>
</svg>
